<?xml version="1.0" encoding="utf-8"?>
<!-- Generator: Adobe Illustrator 25.0.0, SVG Export Plug-In . SVG Version: 6.00 Build 0)  -->
<svg version="1.1" id="Layer_1" xmlns="http://www.w3.org/2000/svg" xmlns:xlink="http://www.w3.org/1999/xlink" x="0px" y="0px"
	 viewBox="0 0 1331.2 471.1" style="enable-background:new 0 0 1331.2 471.1;" xml:space="preserve">
<style type="text/css">
	.st0{fill:#FFFFFF;}
	.st1{fill:#1B2A41;}
	.st2{fill:#F2A61E;}
</style>
<path class="st0" d="M475.2,386.5v59.8h-7.1v-4.6c-3.9-5.1-8.2-9.8-12.8-14.2c-8.4,8.2-14.5,12.2-18.3,12.2c-4.5,0-10-3-16.5-9.1
	c-5.7-5.3-9.8-10.5-12.2-15.4c-2.4-4.9-5.1-12.3-8-22.3l7-1.8c1.5,4.2,4.3,11.1,8.5,20.9c5,10.3,11.9,15.5,20.6,15.5
	c4.2-0.1,8.2-1.7,11.4-4.5c3.6-3,5.5-6.4,5.5-10.3c0-3.3-3.2-6.5-9.6-9.6l2.2,5.2l-16.3,5.7c-4.2-7.1-6.4-11.6-6.4-13.5
	c0-2,1.9-4.5,5.6-7.5c3.7-3,6.6-4.5,8.7-4.5c2,0,6.5,2.9,13.6,8.6c7.9,6.4,11.8,11.5,11.8,15.4c0,1.6-0.8,4.1-2.5,7.7
	c2.5,2.3,4.9,4.8,7.1,7.3v-41.2H399v-8h85.7v8H475.2z"/>
<path class="st0" d="M496.3,386.5v59.8h-7.7V400l-7-13.6h-1.2v-8h5.2l3,6.7v-17.5l5,1.6l1.8,9.2h10.5v8H496.3z"/>
<path class="st0" d="M559.1,386.5v59.8h-7.7v-44.1l-4.8-3.4l-26.3,22.5l-7.6-7.9c3.2-3.6,4.8-6.8,4.8-9.5c0-2.7-1.3-4-3.9-4
	c-1.9,0-4.2,0.9-6.9,2.7l-6-8.4c11.1-10.3,19.2-15.6,24.5-15.8c4.8-0.2,13.6,4.3,26.2,13.5v-23.6h5.6l1.7,10.1h9.9v8L559.1,386.5z
	 M526.2,388.2c-2.2,0-5.2,1.6-9,4.9c4.8,1.6,7.1,5,7.1,10.1v2.3l14-11.6C532.9,390.1,528.9,388.2,526.2,388.2z"/>
<path class="st0" d="M615.9,386.5v59.8h-7.4v-7.8c-5-14.7-11.1-24.4-18.5-29c-3.4-2.2-6.5-3.2-9.3-3.2c-2.4,0-4.8,0.7-6.9,2
	c-2.5,1.6-3.8,3.5-3.8,5.7c0,1.9,1.7,3.5,5.2,5l6.5-6.1l7.2,10.4c-5.3,5.2-9.2,7.8-11.8,7.8s-5.4-2.2-8.5-6.5
	c-2.7-4-4.1-7.5-4.1-10.4c0-3.1,1.9-7.1,5.8-11.8c3.9-4.8,7.2-7.1,9.9-7.1c4.4,0,9.1,1.9,14.2,5.8c4.3,3.1,7.9,6.9,10.7,11.4
	c1.4,2.5,2.6,5.2,3.5,7.9v-33.7H563v-8h62.4v8H615.9z"/>
<path class="st0" d="M637,386.5v59.8h-7.7V400l-7-13.6H621v-8h5.2l3,6.7v-17.5l5,1.6l1.8,9.2h10.5v8H637z"/>
<path class="st0" d="M698.6,386.5v59.8h-7.5v-4.2c-7.9-12.9-20.5-19.4-37.9-19.4l-2.6-12.3c-0.6-0.1-0.9-0.4-0.9-0.7
	c0-0.6,0.7-1.3,2.2-2.1c2.2-1.2,8-3.8,17.4-7.8c10.5-4.5,17.7-7.5,21.7-9v-4.3h-48.9v-8H708v8L698.6,386.5z M673.6,445.2l-9.1-6.3
	l9.2-6.8l8.4,7L673.6,445.2z M691.1,402.8l-25.9,10.9c11.5,3.9,20.2,10,25.9,18.6V402.8z"/>
<path class="st0" d="M778.8,386.5v4.5c5.3,2.4,10.3,5.4,14.9,8.8c7.2,5.2,10.8,9.8,10.8,13.9c0,6.6-4.1,12.8-12.2,18.6l-10.8-8.5
	l7.6-10.6l4.5,6c3.3-2.5,5-4.1,5-4.8c0-4.4-6.6-8.2-19.7-11.4v43.2h-8l0.3-4.2c-6.2-6.8-11.9-11.5-17-14.3
	c-6.4-3.4-14.3-5.9-23.8-7.4l-1.5-11l42.2-18.5v-4.5h-43.4v-8h80.5v8L778.8,386.5z M771.1,403.9l-23.8,10c8.9,3,16.8,8.9,23.8,17.5
	V403.9z"/>
<path class="st0" d="M826,386.5c-5.6,4.2-8.5,8.5-8.5,12.8c0,1.9,1,5,2.9,9.3c1,2.1,2.4,5.3,4.3,9.6c0.8,1.9,1.3,3.9,1.3,5.9
	c0,4.5-4.8,12.2-14.4,23l-8.6-15.7l10.7,1.2c3.5-2.2,5.2-4.8,5.2-8c0-2.7-1.8-7.2-5.5-13.5s-5.5-10.5-5.5-12.9c0-2.2,1.3-6.2,4-11.8
	h-9.4v-8H831v8L826,386.5z"/>
<path class="st0" d="M842.6,386.5v59.8h-7.7V400l-7-13.6h-1.2v-8h5.2l3,6.7v-17.5l5,1.6l1.8,9.2h10.5v8H842.6z"/>
<path class="st0" d="M919,379.2c-16.2-10.3-30.4-15.5-42.5-15.5c-3.1,0-6.7,1.3-10.9,4c-3.9,2.5-5.8,4.1-5.8,4.9
	c0,1.3,1.3,3.3,3.8,5.8h10.8l-2.3,8h-9.1v59.8h-7.7v-59.8h-7.4v-8h5.5c-2-3.2-3-5.5-3-6.9c0-2.7,3.1-6.4,9.3-11.1s11.5-7.2,15.8-7.2
	c9.7,0,24.9,7.1,45.8,21.3L919,379.2z"/>
<path class="st0" d="M924.4,386.5v59.8H917v-4.2c-7.9-12.9-20.5-19.4-37.9-19.4l-2.6-12.3c-0.6-0.1-0.9-0.4-0.9-0.7
	c0-0.6,0.8-1.3,2.2-2.1c2.2-1.2,8-3.8,17.4-7.8c10.5-4.5,17.7-7.5,21.7-9v-4.3H868v-8h65.8v8L924.4,386.5z M899.4,445.2l-9.1-6.3
	l9.2-6.8l8.4,7L899.4,445.2z M916.9,402.8L891,413.7c11.5,3.9,20.1,10,25.9,18.6V402.8z"/>
<path class="st0" d="M982,386.5v59.8h-7.2v-4.4c-4.5-5-10-9-16.2-11.6c-5.1-2.3-12.8-3.3-23-2.9l-5-10.6l20.2-12.3
	c-5.2-5.4-11.5-9.8-18.4-12.9l3.7-5.2h-6.6v-8h61.9v8L982,386.5z M974.8,386.5h-29.9c6.3,4,12.6,10.8,18.9,20.5l-16.5,10.9
	c11.6,2,20.7,7.3,27.4,15.8V386.5z M957.8,445.2l-9.1-6.3l9.1-6.9l8.5,7L957.8,445.2z"/>
<path class="st0" d="M1003.1,386.5v59.8h-7.7V400l-7-13.6h-1.2v-8h5.2l3,6.7v-17.5l5,1.6l1.8,9.2h10.5v8H1003.1z"/>
<path class="st0" d="M1064.7,386.5v59.8h-7.5v-4.2c-7.9-12.9-20.5-19.4-37.9-19.4l-2.6-12.3c-0.6-0.1-0.9-0.4-0.9-0.7
	c0-0.6,0.8-1.3,2.2-2.1c2.2-1.2,8-3.8,17.4-7.8c10.5-4.5,17.7-7.5,21.7-9v-4.3h-48.9v-8h65.9v8L1064.7,386.5z M1039.7,445.2
	l-9.1-6.3l9.2-6.8l8.4,7L1039.7,445.2z M1057.2,402.8l-25.9,10.9c11.5,3.9,20.1,10,25.9,18.6V402.8z"/>
<path class="st0" d="M1149.8,386.5v59.8h-7.9V410c-1.7-1.6-3-2.4-3.9-2.5c-1.7,0-3.5,1.3-5.3,3.8c-1.9,2.8-4.7,6.8-8.6,12.1
	c-3.6,4.6-7.7,6.9-12.1,6.9c-4.7,0-10.4-4.1-17.2-12.2l9-8.5c2.9,9.8,5.6,14.7,8.1,14.7c3.2,0,5.8-2.4,7.7-7.2
	c1.5-3.5,2.2-7.3,2.2-11.1c0-2.9-1.3-6.2-3.9-9.9c-2.8-4-5.6-6-8.4-6c-1.9,0-4.7,2.7-8.5,8l-2.4-11.6h-4.9v-8h65.4v8L1149.8,386.5z
	 M1141.9,386.5h-19.8c4.2,5.5,6.4,11.1,6.4,16.6c3.3-2.7,6.2-4.1,8.7-4.1c1.7,0.2,3.4,0.8,4.8,1.8V386.5z"/>
<path class="st0" d="M1154.8,386.5v-8h64.3v8H1154.8z M1211.5,441.1c-9.2-5.1-16.6-8.5-22.3-10.2c-9.7-2.9-19.8-4.4-30-4.6
	l-3.1-13.7c7.3,1.3,12.2,1.9,14.6,1.9c6.6,0,13.2-0.9,19.6-2.7c7.5-2,11.2-4.4,11.2-7.1c0-1.5-2.5-2.6-7.5-3.4
	c-3.1-0.5-6.1-0.8-9.2-0.8c-6.5,0-13.5,2.2-21.2,6.7l-5.3-10.7c10.9-4.7,18.9-7,23.8-7c5.5,0,10.9,1.3,15.8,3.7
	c6.5,3,9.8,6.8,9.8,11.5s-5.4,10.1-16.3,16.4c2.8,1,5.9,2.4,9.4,4c2.4,1.2,7.8,4.6,15.9,10.1L1211.5,441.1z"/>
<path class="st0" d="M1227,386.5v4.4c2.6,4.6,7,6.8,13.3,6.8c1.7-0.2,3.4-0.6,5.1-1.3c1.6-0.7,3.3-1.1,5.1-1.3
	c3.6,0,7.3,2.7,11.2,8.1c3.5,4.8,5.2,8.2,5.2,10.5c0.1,7.1-3,13.9-8.5,18.4c-5,4.4-10.5,6.6-16.4,6.6c-4.7,0-9.6-2.8-14.9-8.3
	s-7.9-10.7-7.9-15.4v-28.6h-4.6v-8h55.7v8H1227z M1252.3,407.1c-1.7,0.3-3.3,0.7-4.8,1.3c-2.1,0.7-4.2,1.2-6.4,1.3
	c-4.5,0-9.2-3-14-9v13.7c0,8.5,5,12.8,15,12.8c4.4,0.1,8.7-1,12.6-3.1c4.4-2.5,6.6-5.9,6.6-10.2c0-1.3-1.2-2.7-3.4-4.3
	C1255.5,407.9,1253.7,407.1,1252.3,407.1L1252.3,407.1z"/>
<path class="st0" d="M1321.7,386.5v59.8h-7.5v-4.2c-7.9-12.9-20.5-19.4-37.8-19.4l-2.6-12.3c-0.6-0.1-0.9-0.4-0.9-0.7
	c0-0.6,0.7-1.3,2.2-2.1c2.2-1.2,8-3.8,17.4-7.8c10.5-4.5,17.7-7.5,21.7-9v-4.3h-48.9v-8h65.8v8L1321.7,386.5z M1296.7,445.2
	l-9.1-6.3l9.2-6.8l8.3,7L1296.7,445.2z M1314.2,402.8l-25.9,10.9c11.5,3.9,20.1,10,25.9,18.6V402.8z"/>
<path class="st0" d="M266.9,40.4c25.2,22.8,42.5,57.9,44.9,91.8c1.5,37.9-10.5,70.4-29,103l-1,1.8c-5.8,10.3-12.4,20.1-19.1,29.8
	c-1.5,2.1-2.9,4.3-4.4,6.4c-3,4.5-6.2,8.8-9.4,13.1l-1.3,1.8l-3.2,4.3h1.9c5.9,0,11.7,0.1,17.6,0.1c3,0,6,0.1,9,0.1l8.7,0.1h3.3
	c1.6,0,3.1,0,4.7,0h2.7c3.3,0.3,6.6,1.1,9.2,3.4c2.2,3.8,2.8,7.3,3.2,11.6c3.7,28.2,13.8,56.4,24,82.9l0.9,2.4
	c0.5,1.6,1.2,3,2.1,4.5c4.2,8.5,3.5,17.5,3.4,26.7c0,1.8,0,3.6,0,5.5c0,2.2,0,4.4,0,6.6v2.4c-0.1,5-0.5,9.8-4.1,13.6
	c-3.3,2.9-6.1,3-10.4,3H301h-13.4H283h-2.3c-10.4,0.2-20.9,0.3-31.3,0.3c-7,0-14.1,0-21.1,0h-11.2c-3.5,0-7,0-10.5,0
	c-1.3,0-2.6,0-3.9,0h-5.3H196c-4,0.1-6.4,1.4-9.2,4.2l-0.9,1.1c-4.7,5.5-8.2,8.9-15.5,10.1c-4.4,0.2-8.8-1.3-12.2-4.1
	c-2.5-2.5-4.8-5.1-6.9-7.9c-3.2-3-6.6-3.3-10.8-3.3h-1.7c-1.9,0-3.8,0-5.6,0h-12.8c-4.6,0-9.2,0-13.8,0H72.5c-8.8,0-17.7,0-26.5,0
	c-4.6,0-9.1,0-13.7,0h-8.5h-3.9c-1.8,0-3.6,0-5.4,0H13c-4,0-6.4-1.4-9.2-4.1c-3-3.6-4.1-6.4-3.6-11.1c1.4-3.7,3.2-7,6.8-8.8
	c2.5-0.7,5-0.9,7.5-0.8h1.7h5.6h26.5H70h24.7l50.8,0.1c-5.5-7-12.9-10.6-21.5-12.1c-2-0.2-3.9-0.2-5.8-0.3h-1.7
	c-1.9,0-3.7-0.1-5.6-0.1l-4.1-0.1c-11.2-0.2-22.3-0.3-33.5-0.3h-5.5h-6.9h-1.4H43.9c-4.2,0-8.4,0-12.7,0c-2.2,0-4.4,0-6.6,0
	c-2.4,0-4.9,0-7.3,0h-2.2c-4.2-0.1-7.5-0.6-11-3.1c-2.9-3-3.6-5.4-3.5-9.6c0.5-4,1.3-7.9,2.5-11.7c0.2-1,0.5-1.9,0.7-2.9
	c0.8-3,1.5-5.9,2.3-8.9l0.7-2.8c1.5-5.9,3.1-11.8,4.7-17.6l1.2-4.3c3.6-13.3,7.2-26.6,10.9-39.8l0.6-2.1l1.7-5.9
	c0.2-0.6,0.3-1.1,0.5-1.7c0.8-2.7,1.5-5.3,2.4-8l0.5-1.5c1-2.3,2.9-4.2,5.2-5.3c1.9-0.1,3.8-0.1,5.7-0.1h1.8l5.9-0.1h4.1l10.7-0.1
	l10.9-0.1l21.5-0.2l-1-1.3c-2.7-3.4-5.4-6.8-7.8-10.4c-0.6-0.9-1.3-1.9-1.9-2.8l-1-1.5c-1.1-1.6-2.2-3.2-3.3-4.8
	c-10-14.5-19.8-29-28-44.5l-1.2-2.3c-12.4-23.1-23.4-48.1-23.8-74.9v-1.6c-0.2-12.9,0.3-25,3.6-37.6l0.5-1.9
	c7.8-29.4,25.2-56.8,49.3-75.5l1.1-0.9c6.9-5.2,14.1-9.9,21.8-13.9l1.4-0.8c13.5-6.9,28-11.4,43-13.4l1.5-0.2
	C191.9-2.5,234.9,11.9,266.9,40.4z"/>
<path class="st1" d="M27,417.6h24.2h11.2c15.2,0,30.4,0,45.7,0.2l4,0c11.7,0.1,22.6,1.3,31.4,9.9c0.9,1.3,1.8,2.7,2.7,4
	c-23,0.1-46.1-0.1-69.1-0.3l-16.4-0.1l-33.6-0.2L27,417.6z"/>
<path class="st2" d="M189.9,32.6l1.3,0.2c28.9,5.4,54.8,22.6,71.8,46.4c17.6,26.1,24.5,56.9,18.4,88c-6.2,29.4-23.2,55.5-48.5,72
	c-26.8,17-59.3,22.5-90.2,15.4c-29.2-6.9-54.4-24.9-70.5-50.2c-7.8-12.6-13.1-26.6-15.7-41.3l-0.4-2.4c-4.3-29.8,3.3-60.2,21.2-84.4
	c3.2-4.2,6.6-8.2,10.2-12.1l1.2-1.4C113.9,36.3,154.7,26,189.9,32.6z"/>
<path class="st1" d="M49.2,316c8.4-0.2,16.8-0.4,25.3-0.6c3.9,0,7.8-0.1,11.7-0.2s7.6-0.2,11.3-0.2c1.4,0,2.9-0.1,4.3-0.1
	c11.8-0.5,11.8-0.5,16.3,3.4c2.2,2.2,4.2,4.6,6,7.1c1.8,2.4,3.8,4.6,5.8,6.8l1.6,1.8c5.4,6,11.1,11.7,16.8,17.4
	c1.7,1.7,3.4,3.4,5.1,5.1l3.3,3.3l1.5,1.5c3.2,3.2,6.3,6.1,11.1,6.2c5.8-0.2,9.3-4.3,13.1-8.2c1.3-1.3,2.7-2.6,4.1-3.8
	c4.9-4.3,9.5-8.9,13.7-13.9c1.3-1.5,2.8-2.9,4.2-4.4c2.2-2.2,4.4-4.5,6.4-6.9c2.5-2.9,5.2-5.7,7.8-8.5c0.7-0.7,1.3-1.4,1.8-2.3
	c2.4-3.2,2.4-3.2,4.4-3.9c1.5-0.1,3-0.2,4.4-0.1h1.7c1.8,0,3.7,0,5.5,0.1h3.8c3.4,0,6.7,0.1,10,0.1s6.9,0.1,10.3,0.1
	c6.7,0,13.4,0.1,20.1,0.2c1.2,3.6,2.4,7.2,3.3,10.9l0.3,1.3c0.2,0.9,0.5,1.8,0.7,2.8l1.1,4.4c1,3.9,1.9,7.8,2.9,11.7
	c3.6,14.7,8.9,29.2,14.4,43.3c0.9,2.4,0.9,2.4,0.9,3H303c-10.9,0-21.8,0.1-32.7,0.1l-15.8,0.1c-4.6,0-9.2,0-13.8,0.1h-7.3
	c-21.7,0-40.7,2-57.2,17.5c-2,2.2-3.8,4.5-5.4,7l-1,1.4h-1.3c-0.8-1.1-1.6-2.2-2.4-3.4c-9.2-12.8-23.6-18.9-38.7-21.5l-1.9-0.4
	c-4-0.4-8-0.6-12-0.5h-2.8l-7.5,0l-7.9,0l-14.9-0.1l-17-0.1l-34.9-0.2c0.2-1.1,0.4-2.1,0.6-3.2l0.3-1.8c0.5-2.1,1-4.2,1.6-6.4
	l0.3-1.3c0.4-1.4,0.8-2.9,1.2-4.3c0.3-1,0.6-2.1,0.8-3.1c0.8-3.1,1.7-6.2,2.5-9.3c0.7-2.5,1.3-4.9,2-7.4l4.3-15.6
	c0.4-1.4,0.8-2.9,1.2-4.3c0.7-2.7,1.5-5.4,2.2-8.1l0.7-2.5l0.6-2.3l0.5-2C47.9,319.9,48.6,318,49.2,316z"/>
<path class="st1" d="M222.5,418.1h19.1h15.7h17.8l36.7,0.1V431l-38.2,0.3l-17.8,0.1l-15.5,0.1l-8.2,0.1c-13.4,0.1-26.8,0.1-40.2,0.1
	c4-6.8,10.3-10.4,17.7-12.8C213.9,417.9,218.2,418.1,222.5,418.1z"/>
<path class="st1" d="M231,80.9L231,80.9c0.1,3.7-0.8,6.4-2.4,10l-0.7,1.7c-0.8,1.8-1.6,3.7-2.4,5.5c-0.6,1.3-1.1,2.6-1.7,3.8
	c-1.4,3.2-2.8,6.4-4.2,9.6l-3.2,7.4c-1.1,2.6-2.2,5.1-3.3,7.6c-2.3,5.2-4.6,10.4-6.8,15.7l-0.8,1.9c-1.3,3.2-2.7,6.3-4,9.5
	c-0.5,1.2-1,2.3-1.5,3.5l-0.7,1.6c-1.1,2.5-2.1,4.9-3.3,7.3c-0.2,0.4-0.4,0.9-0.6,1.3c-1.3,2-3.2,3-5.2,4.1l-1.5,0.8
	c-1.8,1-3.6,2-5.4,2.9l-2.4,1.4c-4.6,2.5-9.2,4.9-13.8,7.4c-9.4,5-18.8,10.1-28.1,15.3l-3.5,1.9l-3.8,2.1c-1,0.5-2,1.1-3,1.7
	c-1.3,0.7-2.6,1.5-3.9,2.2l-1.9,1l-3.4,1.9l-1.4,0.8l-0.5,0.3c-1.3,0.7-2.8,1.1-4.3,1.2c-0.2,0-0.5,0-0.7,0c-0.2,0-0.4,0-0.6,0h-0.1
	c-0.6-0.1-1.2-0.1-1.9-0.3c-1.3-0.8-2.2-2-2.7-3.4v-0.4c0-0.3,0-0.6,0-0.8v-0.1c-0.1-3.7,0.8-6.4,2.4-10c0.2-0.6,0.5-1.1,0.7-1.7
	c0.8-1.8,1.6-3.6,2.4-5.5l1.7-3.8c1.4-3.2,2.8-6.4,4.2-9.6c1.1-2.5,2.2-4.9,3.2-7.4c1.1-2.5,2.2-5.1,3.4-7.6
	c2.3-5.2,4.5-10.4,6.8-15.7l0.8-1.9l4-9.5c0.5-1.2,1-2.3,1.5-3.5l0.7-1.6c1.1-2.5,2.1-4.9,3.3-7.3l0.6-1.3c1.2-2,3.2-3,5.2-4.1
	l1.5-0.8c1.8-1,3.6-2,5.4-2.9l2.4-1.3c4.6-2.5,9.2-4.9,13.8-7.3c9.4-5,18.8-10.1,28.1-15.3l3.5-1.9l3.8-2.1l3-1.7
	c1.3-0.7,2.6-1.5,3.9-2.2l1.9-1.1l3.4-1.9c0.5-0.3,1-0.5,1.4-0.8l0.5-0.3c1.3-0.7,2.8-1.1,4.3-1.2h0.8h0.5h0.1
	c0.6,0.1,1.2,0.2,1.9,0.3c1.3,0.8,2.2,2,2.7,3.4c0,0.2,0,0.3,0,0.4C231,80.3,231,80.6,231,80.9z"/>
<circle class="st2" cx="165.3" cy="146.1" r="11.8"/>
<path class="st0" d="M405.7,263c0-15.9,3.8-28.7,11.4-38.4c7.6-9.7,17.8-14.6,30.6-14.6c11.4,0,20.2,3.9,26.5,11.7l1.1-9.8h25.1
	v100.3c0,9.1-2.1,17-6.2,23.7c-4.1,6.7-10.2,12.1-17.4,15.3c-7.5,3.5-16.2,5.3-26.3,5.3c-7.6,0-15.2-1.6-22.2-4.6
	c-7.2-3-12.7-7-16.4-11.8l12.3-16.9c6.9,7.7,15.3,11.6,25.1,11.6c7.3,0,13.1-2,17.2-5.9c4.1-3.9,6.2-9.5,6.1-16.7v-5.6
	c-6.4,7.2-14.8,10.8-25.3,10.8c-12.5,0-22.5-4.9-30.2-14.6c-7.7-9.7-11.5-22.7-11.5-38.8L405.7,263z M433.4,265.1
	c0,9.4,1.9,16.8,5.6,22.1c3.4,5.2,9.3,8.2,15.5,8c8.4,0,14.5-3.2,18.1-9.5v-43.7c-3.7-6.3-9.7-9.5-17.9-9.5
	c-6.3-0.2-12.2,2.9-15.7,8.1C435.3,246.2,433.4,254.3,433.4,265.1z"/>
<path class="st0" d="M583.8,305.1c-6.8,8.3-16.3,12.4-28.4,12.4c-11.1,0-19.6-3.2-25.5-9.6c-5.8-6.4-8.8-15.8-9-28.1v-68h27.7v67.1
	c0,10.8,4.9,16.2,14.8,16.2c9.4,0,15.8-3.3,19.4-9.8v-73.5h27.8v103.7h-26L583.8,305.1z"/>
<path class="st0" d="M631.4,185.1c-0.1-3.9,1.4-7.6,4.2-10.2c2.8-2.7,6.6-4,11.4-4s8.6,1.3,11.3,4c5.7,5.7,5.7,14.9,0,20.6
	c-2.8,2.7-6.6,4-11.3,4s-8.4-1.3-11.3-4C632.9,192.8,631.3,189,631.4,185.1z M660.8,315.7H633V212h27.8V315.7z"/>
<path class="st0" d="M679.3,263c0-16.2,3.6-29,10.9-38.6s17.2-14.4,29.8-14.4c9.6-0.2,18.8,3.9,25,11.3v-52.9h27.8v147.2h-25
	l-1.3-11c-6.9,8.6-15.8,12.9-26.6,12.9c-12.2,0-22-4.8-29.4-14.4S679.3,280.1,679.3,263z M707,265.1c0,9.7,1.7,17.2,5.1,22.4
	s8.3,7.8,14.8,7.8c8.6,0,14.6-3.6,18.1-10.8v-41c-3.4-7.2-9.4-10.9-17.9-10.9C713.7,232.5,707,243.4,707,265.1z"/>
<path class="st0" d="M841.9,317.5c-15.2,0-27.6-4.7-37.1-14s-14.3-21.7-14.4-37.2v-2.7c-0.2-9.7,1.9-19.2,6-27.9
	c3.7-7.9,9.7-14.5,17.1-19c7.6-4.5,16.4-6.8,25.3-6.7c14.2,0,25.3,4.5,33.5,13.4c8.1,8.9,12.2,21.6,12.3,38.1v11.3h-66
	c0.9,6.8,3.6,12.2,8.1,16.3s10.2,6.1,17.1,6.1c10.7,0,19-3.9,25-11.6l13.6,15.2c-4.3,6-10.1,10.7-16.9,13.8
	C858.1,316,850.1,317.7,841.9,317.5z M838.8,232.3c-5.1-0.2-9.9,1.9-13.4,5.6c-3.4,3.7-5.6,9.1-6.6,16h38.5v-2.2
	c-0.1-6.2-1.8-10.9-5-14.3C849.2,234.1,844.6,232.4,838.8,232.3L838.8,232.3z"/>
<path class="st0" d="M901.7,302.1c-0.2-4.1,1.5-8,4.5-10.7c6.5-5.5,16-5.5,22.4,0c3,2.8,4.6,6.7,4.5,10.7c0.1,4-1.5,7.9-4.4,10.6
	c-6.5,5.4-16,5.4-22.5,0C903.2,309.9,901.6,306.1,901.7,302.1z"/>
<path class="st0" d="M1000.4,297.9c5.1,0,9.3-1.4,12.4-4.2c3.2-2.8,5-6.9,5-11.2h26c0,6.9-2,13.6-5.8,19.3
	c-3.8,5.9-9.2,10.6-15.5,13.6c-6.8,3.3-14.2,4.9-21.7,4.8c-14.8,0-26.5-4.7-35.1-14.1c-8.6-9.4-12.8-22.4-12.8-39.1v-1.8
	c0-16,4.2-28.7,12.8-38.2s20.2-14.3,35-14.3c13,0,23.4,3.7,31.2,11.1c7.8,7.4,11.8,17.2,11.9,29.5h-26c-0.1-5.4-1.8-9.8-5-13.1
	c-3.2-3.4-7.4-5.1-12.7-5.1c-6.4,0-11.3,2.4-14.6,7.1c-3.3,4.7-4.9,12.3-4.9,22.9v2.9c0,10.7,1.6,18.3,4.9,23
	S993.8,297.8,1000.4,297.9z"/>
<path class="st0" d="M1055.4,265.5c0-10.3,2-19.5,5.9-27.5c3.7-7.8,9.7-14.3,17.1-18.7c7.4-4.4,16.1-6.6,25.9-6.6
	c14,0,25.4,4.3,34.3,12.8c8.8,8.6,13.8,20.2,14.8,34.9l0.2,7.1c0,15.9-4.4,28.7-13.3,38.3c-8.9,9.6-20.8,14.4-35.8,14.4
	c-14.9,0-26.9-4.8-35.8-14.4c-8.9-9.6-13.4-22.6-13.3-39.1V265.5z M1083.1,267.5c0,9.9,1.9,17.4,5.6,22.6s9,7.8,15.9,7.8
	c6.7,0,12-2.6,15.7-7.7c3.8-5.2,5.7-13.4,5.7-24.7c0-9.7-1.9-17.1-5.7-22.5c-3.8-5.3-9.1-8-15.9-8c-6.8,0-12,2.6-15.7,7.9
	S1083.1,256.4,1083.1,267.5L1083.1,267.5z"/>
<path class="st0" d="M1196.6,214.5l0.9,11.6c7.3-9,17.3-13.5,29.8-13.5c13.3,0,22.5,5.3,27.5,15.8c7.3-10.5,17.7-15.8,31.2-15.8
	c11.2,0,19.6,3.3,25.1,9.8s8.2,16.4,8.2,29.6v66.2h-27.8v-66.1c0-5.9-1.2-10.2-3.4-12.9c-2.3-2.7-6.4-4.1-12.2-4.1
	c-8.3,0-14.1,4-17.3,11.9l0.1,71.2h-27.7v-66c0-6-1.2-10.3-3.6-13c-2.4-2.7-6.4-4-12.1-4c-7.9,0-13.5,3.3-17.1,9.8v73.3h-27.7V214.5
	H1196.6z"/>
<path class="st2" d="M683.9,34.2l0.7,0.1c31.1,6,51.5,36,45.5,67.1c0,0.2-0.1,0.4-0.1,0.5c-3,14.8-11.8,27.9-24.4,36.2
	c-13.5,8.5-29.8,11.3-45.4,7.8c-14.7-3.5-27.4-12.5-35.5-25.3c-3.9-6.4-6.6-13.4-7.9-20.8l-0.2-1.2c-2.2-15,1.7-30.3,10.7-42.5
	c1.6-2.1,3.3-4.1,5.1-6.1l0.6-0.7C645.6,36.1,666.1,30.9,683.9,34.2z"/>
<path class="st1" d="M704.5,58.5L704.5,58.5c0,1.7-0.4,3.5-1.2,5c-0.1,0.3-0.2,0.6-0.4,0.8c-0.4,0.9-0.8,1.8-1.2,2.8l-0.8,1.9
	c-0.7,1.6-1.4,3.2-2.1,4.8l-1.6,3.7l-1.7,3.9c-1.2,2.6-2.3,5.3-3.4,7.9l-0.4,1c-0.7,1.6-1.4,3.2-2,4.8l-0.8,1.8l-0.3,0.8
	c-0.5,1.2-1.1,2.5-1.7,3.7c-0.1,0.2-0.2,0.4-0.3,0.7c-0.7,0.9-1.6,1.6-2.6,2.1l-0.7,0.4c-0.9,0.5-1.8,1-2.7,1.5l-1.2,0.7
	c-2.3,1.2-4.6,2.5-7,3.7c-4.8,2.5-9.5,5.1-14.2,7.7l-1.8,1l-2,1l-1.5,0.9l-2,1.1l-0.9,0.5l-1.7,1l-0.7,0.4l-0.2,0.2
	c-0.7,0.4-1.4,0.6-2.2,0.6h-0.4h-0.3h-0.1c-0.3,0-0.6-0.1-1-0.1c-0.6-0.4-1.1-1-1.3-1.7c0-0.1,0-0.1,0-0.2s0-0.3,0-0.4l0,0
	c0-1.7,0.4-3.5,1.2-5l0.4-0.9c0.4-0.9,0.8-1.8,1.2-2.8c0.3-0.6,0.6-1.3,0.8-1.9l2.1-4.8c0.5-1.2,1.1-2.5,1.6-3.7s1.1-2.6,1.7-3.8
	c1.2-2.6,2.3-5.2,3.4-7.9l0.4-1l2-4.8c0.2-0.6,0.5-1.2,0.7-1.8l0.3-0.8c0.5-1.2,1.1-2.5,1.7-3.7l0.3-0.7c0.7-0.9,1.6-1.6,2.6-2.1
	l0.7-0.4c0.9-0.5,1.8-1,2.7-1.5l1.2-0.7c2.3-1.2,4.6-2.5,7-3.7c4.8-2.5,9.5-5.1,14.2-7.7l1.8-1l1.9-1.1l1.5-0.8
	c0.7-0.4,1.3-0.7,2-1.1l0.9-0.5l1.7-1l0.7-0.4l0.3-0.2c0.7-0.4,1.4-0.6,2.2-0.6h0.4h0.3h0.1c0.3,0,0.6,0.1,0.9,0.1
	c0.6,0.4,1.1,1,1.4,1.7c0,0.1,0,0.2,0,0.2S704.5,58.4,704.5,58.5z"/>
<circle class="st2" cx="671.5" cy="91.3" r="5.9"/>
<path class="st0" d="M453.9,122.5c5.1,0,9.2-1.4,12.4-4.1c3.2-2.7,5-6.7,5-10.8h25.8c0,6.7-2,13.2-5.7,18.7
	c-3.8,5.7-9.1,10.3-15.4,13.1c-6.8,3.2-14.1,4.8-21.6,4.7c-14.7,0-26.4-4.6-34.9-13.7c-8.5-9.1-12.8-21.7-12.8-37.8V91
	c0-15.4,4.2-27.8,12.7-37c8.5-9.2,20-13.8,34.8-13.8c12.9,0,23.2,3.6,31,10.7s11.7,16.6,11.9,28.5h-25.8c-0.1-5.2-1.8-9.5-5-12.7
	c-3.2-3.3-7.4-4.9-12.6-4.9c-6.4,0-11.3,2.3-14.5,6.8c-3.3,4.5-4.9,11.9-4.9,22.1v2.9c0,10.3,1.6,17.8,4.9,22.3
	S447.3,122.6,453.9,122.5z"/>
<path class="st0" d="M539.7,53c7.3-8.5,16.5-12.8,27.5-12.8c22.4,0,33.7,12.6,34,37.9v64.2h-27.5V78.8c0-5.7-1.3-10-3.8-12.7
	s-6.8-4.1-12.7-4.1c-8.1,0-13.9,3-17.5,9.1v71.2h-27.5V0h27.5V53z"/>
<path class="st0" d="M783.1,103l-9.9,9.6v30.6h-27.5V0.9h27.5v78.8l5.3-6.7L805,43H838l-37.3,41.8l40.5,58.5h-31.6L783.1,103z"/>
<path class="st0" d="M907.9,68.1c-3.3-0.5-6.6-0.7-9.9-0.7c-10.4,0-17.2,3.4-20.5,10.3v65.6h-27.6V43h26l0.8,12
	c5.5-9.2,13.2-13.8,23-13.8c2.9,0,5.8,0.4,8.6,1.2L907.9,68.1z"/>
<path class="st0" d="M920.9,17c-0.1-3.7,1.4-7.4,4.1-9.9c2.8-2.6,6.5-3.9,11.3-3.9c4.8,0,8.5,1.3,11.2,3.9c2.8,2.5,4.3,6.2,4.2,9.9
	c0.1,3.8-1.4,7.5-4.2,10c-2.8,2.6-6.6,3.9-11.2,3.9s-8.4-1.3-11.2-3.9C922.4,24.5,920.8,20.8,920.9,17z M950.2,143.2h-27.6V43h27.6
	V143.2z"/>
</svg>
