<svg id="Layer_1" data-name="Layer 1" xmlns="http://www.w3.org/2000/svg" viewBox="0 0 1849.05 453.94"><defs><style>.cls-1{fill:#1b2a41;}.cls-2{fill:#f2a61e;}.cls-3{fill:#f7f8f9;}.cls-4{fill:#122c4f;}</style></defs><path class="cls-1" d="M535.14,352v93.63H524v-7.15q-6.63-9.24-20.08-22.14-19.74,19.17-28.64,19.17-10.65,0-25.85-14.29-13.44-12.56-19-24.06t-12.57-34.87l11-2.79q3.48,9.77,13.25,32.78,11.68,24.22,32.25,24.23,9.24,0,17.79-7.06t8.54-16.13q0-7.66-15-15l3.48,8.19-25.45,8.9q-9.93-16.74-9.94-21.1,0-4.71,8.72-11.77t13.6-7.06q4.71,0,21.27,13.39,18.48,14.94,18.48,24.16c0,2.44-1.28,6.43-3.84,12a144.79,144.79,0,0,1,11.16,11.47V352H415.89V339.41H550V352Z" transform="translate(-25.58 -35.61)"/><path class="cls-1" d="M568.09,352v93.63h-12v-72.4l-11-21.23h-1.92V339.41h8.2l4.7,10.46V322.5l7.85,2.44,2.79,14.47h16.39V352Z" transform="translate(-25.58 -35.61)"/><path class="cls-1" d="M666.43,352v93.63h-12v-69l-7.5-5.23-41.15,35.21L593.9,394.16q7.49-8.55,7.49-14.83t-6.1-6.27q-4.53,0-10.81,4.18l-9.41-13.08q26-24.23,38.35-24.75,11.34-.53,41,21.1v-37h8.71l2.62,15.87h15.51V352ZM615,354.75q-5.06,0-14.12,7.67Q612,366.26,612,378.29v3.48l22-18.13Q621.27,354.75,615,354.75Z" transform="translate(-25.58 -35.61)"/><path class="cls-1" d="M755.34,352v93.63H743.83V433.35q-11.64-34.44-29-45.46-8-5.07-14.6-5.07A20.52,20.52,0,0,0,689.42,386q-5.91,3.69-5.91,9,0,4.4,8.2,7.74l10.11-9.59,11.33,16.21q-12.39,12.21-18.48,12.21-6.27,0-13.25-10.12Q675,402,675,395.2q0-7.32,9.06-18.48t15.52-11.16q10.29,0,22.14,9.07a63.55,63.55,0,0,1,16.74,17.78,72.17,72.17,0,0,1,5.4,12.38V352h-71.3V339.41h97.63V352Z" transform="translate(-25.58 -35.61)"/><path class="cls-1" d="M788.29,352v93.63h-12v-72.4l-11-21.23h-1.91V339.41h8.19l4.71,10.46V322.5l7.85,2.44,2.79,14.47h16.38V352Z" transform="translate(-25.58 -35.61)"/><path class="cls-1" d="M884.71,352v93.63H873V439q-18.59-30.33-59.24-30.33l-4-19.18c-.93-.23-1.4-.58-1.4-1.05q0-1.39,3.49-3.31,5.22-2.79,27.2-12.21,24.59-10.45,34-14.11V352H796.49V339.41h103V352Zm-39.06,91.88L831.35,434l14.48-10.69,13.07,10.89ZM873,377.5l-40.59,17.07q27,9,40.59,29.05Z" transform="translate(-25.58 -35.61)"/><path class="cls-1" d="M1010.23,352v7.13a132,132,0,0,1,23.36,13.74q16.92,12.18,16.92,21.75,0,15.46-19.18,29l-16.91-13.25,11.85-16.57,7,9.42q7.85-5.93,7.84-7.5,0-10.28-30.86-17.78v67.65H997.68l.52-6.63q-14.58-15.85-26.53-22.32-14.94-8-37.26-11.5l-2.28-17.26,66.07-28.94v-7h-68V339.41h126V352Zm-12,27.34-37.3,15.58q20.85,7.14,37.3,27.34Z" transform="translate(-25.58 -35.61)"/><path class="cls-1" d="M1084.15,352q-13.25,9.93-13.25,20,0,4.51,4.54,14.61,2.25,4.88,6.79,15a24.27,24.27,0,0,1,2.1,9.22q0,10.62-22.5,36l-13.42-24.59,16.74,1.92q8.19-5,8.19-12.52,0-6.44-8.63-21t-8.63-20.18q0-5.22,6.28-18.44h-14.65V339.41H1092V352Z" transform="translate(-25.58 -35.61)"/><path class="cls-1" d="M1110.13,352v93.63h-12v-72.4l-11-21.23h-1.92V339.41h8.19l4.71,10.46V322.5l7.85,2.44,2.78,14.47h16.39V352Z" transform="translate(-25.58 -35.61)"/><path class="cls-1" d="M1229.56,340.63q-38-24.22-66.43-24.23-7.14,0-17.08,6.27-9.08,5.76-9.07,7.67,0,3.14,5.93,9.07h16.91L1156.16,352h-14.3v93.63h-12V352h-11.5V339.41h8.54q-4.71-7.5-4.71-10.81,0-6.27,14.56-17.43T1161.39,300q22.66,0,71.66,33.3Z" transform="translate(-25.58 -35.61)"/><path class="cls-1" d="M1238.1,352v93.63h-11.68V439q-18.59-30.33-59.25-30.33l-4-19.18q-1.41-.34-1.41-1.05c0-.93,1.17-2,3.49-3.31q5.23-2.79,27.2-12.21,24.58-10.45,34-14.11V352h-76.54V339.41h103V352ZM1199,443.84,1184.75,434l14.47-10.69,13.08,10.89Zm27.38-66.34-40.59,17.07q27,9,40.59,29.05Z" transform="translate(-25.58 -35.61)"/><path class="cls-1" d="M1328.23,352v93.63H1316.9v-6.8q-9.4-11-25.28-18.13-12-5.42-35.91-4.54l-7.85-16.56,31.56-19.35a91,91,0,0,0-28.77-20.1l5.75-8.15h-10.28V339.41h96.93V352Zm-11.33,0h-46.72q14.77,9.35,29.56,32.14l-25.74,17q27.15,4.71,42.9,24.78Zm-26.5,91.88L1276.1,434l14.24-10.74,13.31,10.92Z" transform="translate(-25.58 -35.61)"/><path class="cls-1" d="M1361.19,352v93.63h-12v-72.4l-11-21.23h-1.92V339.41h8.2l4.71,10.46V322.5l7.84,2.44,2.79,14.47h16.39V352Z" transform="translate(-25.58 -35.61)"/><path class="cls-1" d="M1457.6,352v93.63h-11.68V439q-18.59-30.33-59.25-30.33l-4-19.18q-1.41-.34-1.41-1.05c0-.93,1.17-2,3.49-3.31q5.23-2.79,27.2-12.21,24.58-10.45,34-14.11V352h-76.54V339.41h103V352Zm-39.06,91.88L1404.25,434l14.47-10.69,13.08,10.89Zm27.38-66.34-40.59,17.07q27,9,40.59,29.05Z" transform="translate(-25.58 -35.61)"/><path class="cls-1" d="M1590.8,352v93.63h-12.38V388.75c-2.67-2.56-4.71-3.84-6.1-3.84-2.68,0-5.46,2-8.37,5.93q-4.37,6.45-13.42,19-8.55,10.8-19,10.81-11,0-26.85-19.18l14.13-13.26q6.79,23,12.72,23,7.5,0,12-11.33a46.76,46.76,0,0,0,3.49-17.44q0-6.8-6.1-15.51-6.63-9.42-13.08-9.42-4.36,0-13.25,12.56L1510.77,352h-7.67V339.41h102.35V352Zm-12.38,0h-31q9.93,13,9.93,26,7.68-6.45,13.6-6.45,2.79,0,7.5,2.79Z" transform="translate(-25.58 -35.61)"/><path class="cls-1" d="M1598.65,352V339.41h100.6V352Zm88.74,85.43q-21.62-12-34.87-16a173.31,173.31,0,0,0-46.9-7.15l-4.88-21.44q17.25,3,22.84,3a117.53,117.53,0,0,0,30.69-4.18q17.6-4.71,17.6-11.16,0-3.48-11.68-5.23a95,95,0,0,0-14.47-1.22q-15.17,0-33.12,10.46l-8.37-16.74q25.62-11,37.31-11a58.43,58.43,0,0,1,24.76,5.75q15.33,7,15.34,18T1656.18,406q6.63,2.44,14.65,6.27,5.75,2.81,24.93,15.87Z" transform="translate(-25.58 -35.61)"/><path class="cls-1" d="M1711.62,352v6.91q6.11,10.69,20.75,10.7,2.27,0,7.93-2t7.93-2q8.37,0,17.61,12.73,8.21,11.16,8.2,16.39,0,17.26-13.25,28.76-11.86,10.31-25.63,10.29-11,0-23.28-13t-12.29-24.09V352h-7.15V339.41h87.18V352Zm39.58,32.26q-1.4,0-7.59,2a34.16,34.16,0,0,1-10,2q-10.63,0-22-14.12v21.45q0,20.06,23.54,20.05a39.08,39.08,0,0,0,19.7-4.88q10.29-5.76,10.29-16,0-3-5.41-6.72T1751.2,384.22Z" transform="translate(-25.58 -35.61)"/><path class="cls-1" d="M1859.82,352v93.63h-11.69V439q-18.59-30.33-59.25-30.33l-4-19.18c-.93-.23-1.4-.58-1.4-1.05q0-1.39,3.49-3.31,5.22-2.79,27.19-12.21,24.58-10.45,34-14.11V352h-76.54V339.41h103V352Zm-39.06,91.88-14.3-9.88,14.47-10.69L1834,434.16Zm27.37-66.34-40.59,17.07q27,9,40.59,29.05Z" transform="translate(-25.58 -35.61)"/><path class="cls-1" d="M284.18,72.26c24.43,22.06,41.19,56.14,43.44,89,1.47,36.69-10.16,68.16-28,99.78l-1,1.73c-5.65,10-12,19.44-18.52,28.87q-2.13,3.09-4.22,6.21c-2.95,4.31-6,8.53-9.11,12.73l-1.27,1.72-3.08,4.17h1.82l17,.14,8.76.08c2.82,0,5.64,0,8.46.07l3.22,0,4.53.05,2.59,0c3.23.34,6.43,1,8.89,3.3,2.15,3.68,2.69,7,3.14,11.23,3.61,27.34,13.36,54.62,23.23,80.28L345,414a25.54,25.54,0,0,0,2,4.33c4,8.2,3.38,16.91,3.26,25.87,0,1.77,0,3.53,0,5.29,0,2.12,0,4.25,0,6.38v2.36c-.08,4.89-.54,9.46-4,13.21-3.22,2.81-6,2.95-10,2.94H325.43l-8.23,0-13,0h-6.7l-30.3.06q-10.21,0-20.44,0c-3.6,0-7.2,0-10.81,0l-10.17,0H222c-1.7,0-3.39,0-5.09,0h-1.49c-3.89.06-6.19,1.36-8.92,4.05l-.87,1.07c-4.54,5.31-7.93,8.62-15.05,9.8a16.92,16.92,0,0,1-11.8-4,71.46,71.46,0,0,1-6.63-7.6c-3.07-2.92-6.42-3.24-10.47-3.2h-1.65c-1.81,0-3.63,0-5.45,0H142.27q-6.66,0-13.32,0-16.54,0-33.08,0-12.86,0-25.71,0H56.92l-8.23,0H44.87c-1.74,0-3.47,0-5.21,0l-1.53,0c-3.89-.05-6.15-1.31-8.93-3.95-2.86-3.53-4-6.16-3.51-10.74,1.3-3.6,3.09-6.73,6.59-8.54a22.73,22.73,0,0,1,7.3-.75h11l10.63,0h11.1l21,0q12,0,23.94,0l49.25.07c-5.34-6.77-12.45-10.24-20.87-11.74-1.89-.19-3.77-.24-5.66-.26l-1.65,0-5.43-.09-3.95-.08c-10.81-.19-21.61-.25-32.42-.29l-5.31,0-6.71,0H83.21q-7.56,0-15.1,0-6.14,0-12.27-.05l-6.41,0-7.08,0H40.26c-4.09-.05-7.26-.58-10.66-3-2.78-2.92-3.48-5.24-3.42-9.27a68.48,68.48,0,0,1,2.41-11.3l.72-2.77c.73-2.88,1.49-5.75,2.24-8.62.24-.89.47-1.78.7-2.67q2.25-8.53,4.56-17.07l1.13-4.19Q43.12,360,48.47,340.83l.57-2.06c.54-1.9,1.07-3.8,1.61-5.71l.46-1.65c.73-2.58,1.49-5.15,2.3-7.71l.44-1.42a10.1,10.1,0,0,1,5.09-5.17c1.85-.08,3.69-.12,5.54-.13l1.73,0,5.7,0,3.94-.05,10.39-.1,10.6-.1,20.8-.2-1-1.26c-2.64-3.27-5.18-6.55-7.53-10l-1.84-2.72-1-1.44-3.19-4.67c-9.66-14.06-19.14-28.06-27.17-43.13L74.69,251C62.62,228.52,52,204.33,51.59,178.42l0-1.59c-.16-12.52.3-24.25,3.46-36.45l.48-1.84c7.58-28.51,24.42-55,47.78-73.15l1.07-.84A149.34,149.34,0,0,1,125.46,51l1.35-.72a126.59,126.59,0,0,1,41.69-13l1.47-.23C211.5,30.78,253.14,44.69,284.18,72.26Z" transform="translate(-25.58 -35.61)"/><path class="cls-2" d="M51.77,437.76l23.44,0h10.9c14.75,0,29.49,0,44.24.22l3.85.05c11.33.14,21.86,1.24,30.39,9.56.88,1.29,1.76,2.59,2.61,3.91-22.32.08-44.63-.12-66.94-.29L84.36,451l-32.59-.24Z" transform="translate(-25.58 -35.61)"/><path class="cls-2" d="M209.59,64.74l1.28.23c28,5.27,53.09,21.89,69.55,45,17,25.29,23.73,55.12,17.86,85.22-6,28.5-22.48,53.76-47,69.78a115.27,115.27,0,0,1-87.4,14.93,110.81,110.81,0,0,1-68.26-48.63,113.55,113.55,0,0,1-15.2-40l-.4-2.33a111,111,0,0,1,20.56-81.78c3.1-4.08,6.41-8,9.84-11.75l1.19-1.33C135.94,68.31,175.45,58.35,209.59,64.74Z" transform="translate(-25.58 -35.61)"/><path class="cls-3" d="M73.29,339.28q12.24-.36,24.49-.54c3.79-.05,7.59-.12,11.38-.24s7.33-.18,11-.21c1.4,0,2.79-.05,4.18-.11,11.42-.45,11.42-.45,15.81,3.31a59,59,0,0,1,5.79,6.84c1.75,2.31,3.69,4.45,5.62,6.61l1.58,1.78c5.24,5.78,10.72,11.31,16.23,16.83l4.92,5,3.16,3.18,1.47,1.49c3.09,3.08,6.09,5.91,10.7,6,5.58-.23,9-4.18,12.67-8,1.27-1.3,2.58-2.49,4-3.66A124.47,124.47,0,0,0,219.54,364c1.3-1.47,2.67-2.84,4.07-4.21,2.18-2.16,4.23-4.37,6.23-6.7,2.45-2.81,5-5.54,7.55-8.26a14.51,14.51,0,0,0,1.73-2.19c2.31-3.14,2.31-3.14,4.31-3.81a30.84,30.84,0,0,1,4.3-.1h1.64c1.77,0,3.55,0,5.33.08l3.71,0q4.88,0,9.75.11c3.32,0,6.63.07,9.95.09q9.76.07,19.51.22c1.21,3.5,2.3,7,3.18,10.58l.31,1.27.66,2.67c.34,1.41.69,2.82,1,4.22.95,3.79,1.89,7.57,2.8,11.37,3.51,14.26,8.58,28.28,13.95,41.93.89,2.31.89,2.31.89,3h-1.31q-15.86.06-31.72.15l-15.34.08q-6.69,0-13.39.06c-2.36,0-4.71,0-7.07,0-21.05,0-39.39,1.94-55.43,17a43.8,43.8,0,0,0-5.2,6.83l-1,1.31h-1.3c-.81-1.06-1.58-2.15-2.33-3.26-8.89-12.42-22.81-18.27-37.45-20.87l-1.86-.34a88.12,88.12,0,0,0-11.61-.44l-2.7,0-7.3,0-7.64-.05-14.45-.09-16.46-.1-33.85-.21c.21-1,.42-2.08.62-3.12l.35-1.75c.43-2.07,1-4.1,1.5-6.15l.34-1.26c.38-1.4.77-2.79,1.15-4.19.27-1,.55-2,.82-3l2.46-9c.65-2.4,1.31-4.79,2-7.19q2.05-7.55,4.12-15.08c.38-1.38.76-2.76,1.13-4.13.71-2.61,1.43-5.22,2.14-7.82l.65-2.39.61-2.22.53-1.93C72,343.1,72.64,341.19,73.29,339.28Z" transform="translate(-25.58 -35.61)"/><path class="cls-2" d="M241.15,438.26H244l7.66,0h8l15.17,0,17.27,0,35.52.07V450.8l-37,.25-17.19.12-15,.11-7.93.05q-19.45.14-38.91.12c3.85-6.56,10-10.12,17.15-12.43C232.78,438,237,438.24,241.15,438.26Z" transform="translate(-25.58 -35.61)"/><path class="cls-1" d="M249.35,111.55a0,0,0,0,1,0,0c.1,3.57-.76,6.24-2.31,9.69-.24.54-.47,1.08-.71,1.65l-2.34,5.3c-.55,1.24-1.09,2.48-1.63,3.72q-2,4.64-4.07,9.27-1.57,3.57-3.14,7.16l-3.24,7.4q-3.33,7.58-6.58,15.18c-.39.93-.39.93-.8,1.88L220.61,182c-.47,1.13-1,2.25-1.43,3.37l-.65,1.54c-1,2.38-2.07,4.76-3.19,7.1-.2.42-.39.83-.6,1.26-1.22,2-3.08,2.93-5.07,4l-1.41.79c-1.75,1-3.51,1.9-5.27,2.84-.79.41-1.56.83-2.34,1.25q-6.68,3.59-13.39,7.11c-9.15,4.83-18.2,9.82-27.24,14.85L156.64,228,153,230.05,150,231.69c-1.26.7-2.51,1.41-3.76,2.13l-1.8,1c-1.1.62-2.19,1.25-3.28,1.88-.47.27-.92.52-1.37.75l-.49.31a8.73,8.73,0,0,1-4.15,1.13h-.72l-.53,0h-.14c-.59-.06-1.19-.14-1.82-.26a6.1,6.1,0,0,1-2.61-3.26c0-.14,0-.28,0-.43a7.32,7.32,0,0,1,0-.81v0c-.1-3.57.76-6.24,2.31-9.69l.71-1.65q1.17-2.66,2.35-5.3c.54-1.25,1.08-2.48,1.62-3.72,1.35-3.09,2.71-6.19,4.08-9.27,1.05-2.39,2.09-4.77,3.13-7.17l3.24-7.39q3.33-7.58,6.58-15.18c.39-.94.39-.94.8-1.88,1.31-3.06,2.61-6.13,3.92-9.18.47-1.13.95-2.25,1.43-3.38l.65-1.53c1-2.39,2.07-4.76,3.19-7.11l.6-1.25c1.22-2,3.08-2.93,5.07-4l1.42-.79c1.74-1,3.5-1.91,5.26-2.84l2.34-1.25q6.68-3.59,13.39-7.12c9.15-4.82,18.2-9.82,27.24-14.84l3.38-1.88,3.69-2.05,2.91-1.64c1.26-.7,2.51-1.41,3.76-2.13l1.8-1c1.1-.62,2.19-1.25,3.28-1.88.47-.27.92-.52,1.37-.75l.49-.32a8.83,8.83,0,0,1,4.15-1.12h.72l.53,0h.14c.59.06,1.19.14,1.82.25a6.18,6.18,0,0,1,2.61,3.26c0,.15,0,.29,0,.43A7.63,7.63,0,0,1,249.35,111.55Z" transform="translate(-25.58 -35.61)"/><circle class="cls-2" cx="160.11" cy="139.05" r="11.38"/><path class="cls-1" d="M972.1,191.56q0-23.4,11.13-37.68t30-14.28q16.73,0,26,11.46l1.13-9.58H1065v98.28q0,13.34-6.06,23.21a38.91,38.91,0,0,1-17,15q-11,5.16-25.75,5.17a55.78,55.78,0,0,1-21.79-4.46q-10.62-4.47-16.07-11.51l12-16.54Q1000.47,262,1014.94,262q10.8,0,16.82-5.78t6-16.39V234.4Q1028.38,245,1013.06,245q-18.31,0-29.64-14.33t-11.32-38Zm27.15,2q0,13.83,5.55,21.69a17.61,17.61,0,0,0,15.22,7.86q12.39,0,17.75-9.32V171q-5.44-9.31-17.57-9.32a17.76,17.76,0,0,0-15.36,8Q999.25,177.68,999.25,193.58Z" transform="translate(-25.58 -35.61)"/><path class="cls-1" d="M1146.77,232.81Q1136.71,245,1119,245q-16.35,0-24.94-9.39t-8.79-27.54V141.48h27.16v65.75q0,15.9,14.47,15.9,13.8,0,19-9.6V141.48h27.24V243.14h-25.55Z" transform="translate(-25.58 -35.61)"/><path class="cls-1" d="M1193.37,115.17a13.35,13.35,0,0,1,4.09-10q4.08-3.95,11.13-4t11.09,4a14.35,14.35,0,0,1,0,20.2q-4.19,3.95-11,3.94t-11-3.94A13.33,13.33,0,0,1,1193.37,115.17Zm28.84,128H1195V141.48h27.24Z" transform="translate(-25.58 -35.61)"/><path class="cls-1" d="M1240.35,191.56q0-23.77,10.66-37.87t29.18-14.09a31.15,31.15,0,0,1,24.52,11.09V98.82H1332V243.14h-24.53l-1.31-10.8Q1296,245,1280,245q-18,0-28.8-14.14T1240.35,191.56Zm27.15,2q0,14.31,5,21.93t14.47,7.62q12.58,0,17.76-10.63V172.31q-5.07-10.62-17.57-10.63Q1267.5,161.68,1267.5,193.58Z" transform="translate(-25.58 -35.61)"/><path class="cls-1" d="M1399.8,245q-22.36,0-36.41-13.72t-14.05-36.54v-2.64a61.37,61.37,0,0,1,5.92-27.39,43.57,43.57,0,0,1,16.77-18.6,47.13,47.13,0,0,1,24.76-6.53q20.85,0,32.84,13.16t12,37.3v11.08h-64.74q1.31,10,7.94,16t16.77,6q15.69,0,24.52-11.37l13.34,14.94a40.72,40.72,0,0,1-16.53,13.48A54.19,54.19,0,0,1,1399.8,245Zm-3.11-83.53a17,17,0,0,0-13.1,5.48q-5,5.47-6.44,15.66h37.77v-2.17q-.18-9.06-4.88-14T1396.69,161.49Z" transform="translate(-25.58 -35.61)"/><path class="cls-1" d="M1458.43,229.8a13.66,13.66,0,0,1,4.36-10.52,17,17,0,0,1,22,0,13.67,13.67,0,0,1,4.37,10.52,13.48,13.48,0,0,1-4.32,10.38,15.68,15.68,0,0,1-11.09,4,15.51,15.51,0,0,1-11-4A13.48,13.48,0,0,1,1458.43,229.8Z" transform="translate(-25.58 -35.61)"/><path class="cls-1" d="M1555.2,225.69q7.52,0,12.21-4.13a14.46,14.46,0,0,0,4.89-11h25.46a34.84,34.84,0,0,1-5.63,18.93A37.23,37.23,0,0,1,1577,242.84a47.52,47.52,0,0,1-21.28,4.75q-21.8,0-34.39-13.86t-12.59-38.29v-1.78q0-23.49,12.5-37.49t34.29-14q19.08,0,30.58,10.85t11.7,28.89H1572.3c-.13-5.29-1.75-9.59-4.89-12.89s-7.26-5-12.4-5q-9.49,0-14.33,6.92t-4.84,22.44v2.82q0,15.72,4.8,22.59T1555.2,225.69Z" transform="translate(-25.58 -35.61)"/><path class="cls-1" d="M1609,193.94a60.33,60.33,0,0,1,5.82-27,42.68,42.68,0,0,1,16.78-18.32q10.93-6.48,25.41-6.48,20.58,0,33.59,12.59t14.52,34.2l.18,6.95q0,23.4-13.06,37.54t-35,14.14q-22,0-35.1-14.1T1609,195.16Zm27.15,1.93q0,14.49,5.45,22.16t15.6,7.66q9.87,0,15.41-7.57t5.54-24.23q0-14.2-5.54-22t-15.6-7.81q-10,0-15.41,7.76T1636.19,195.87Z" transform="translate(-25.58 -35.61)"/><path class="cls-1" d="M1747.53,144.05l.85,11.36q10.8-13.24,29.22-13.24,19.64,0,27,15.5,10.71-15.51,30.53-15.5,16.53,0,24.62,9.63t8.08,29v64.93h-27.25V180.88q0-8.65-3.38-12.64t-11.93-4q-12.23,0-16.92,11.65l.1,69.81h-27.16V181q0-8.83-3.47-12.78T1766,164.25q-11.57,0-16.73,9.58v71.88h-27.15V144.05Z" transform="translate(-25.58 -35.61)"/><path class="cls-2" d="M687.56,139.72l.66.11a56.2,56.2,0,0,1,44.51,66.31,56,56,0,0,1-23.91,35.54,58.75,58.75,0,0,1-44.52,7.61,56.46,56.46,0,0,1-34.76-24.77,57.75,57.75,0,0,1-7.74-20.37l-.21-1.18a56.56,56.56,0,0,1,10.47-41.66c1.58-2.08,3.27-4.05,5-6l.6-.68C650.05,141.53,670.17,136.46,687.56,139.72Z" transform="translate(-25.58 -35.61)"/><path class="cls-1" d="M707.81,163.56s0,0,0,0a10.49,10.49,0,0,1-1.17,4.94l-.37.84c-.39.9-.79,1.8-1.19,2.7-.27.63-.55,1.26-.83,1.89-.68,1.58-1.38,3.15-2.07,4.72-.54,1.22-1.07,2.43-1.6,3.65l-1.65,3.77q-1.7,3.85-3.35,7.73c-.2.48-.2.48-.41,1-.66,1.56-1.33,3.12-2,4.67l-.73,1.72c-.17.39-.17.39-.33.78-.52,1.22-1.06,2.43-1.63,3.62l-.3.64a5.9,5.9,0,0,1-2.59,2l-.72.4-2.68,1.45-1.19.63q-3.4,1.83-6.82,3.63c-4.66,2.46-9.27,5-13.87,7.56l-1.73,1-1.87,1-1.49.83c-.64.36-1.28.72-1.91,1.09l-.92.52-1.67,1-.69.38-.25.16a4.44,4.44,0,0,1-2.12.57,2.28,2.28,0,0,1-.37,0l-.27,0H649c-.3,0-.6-.07-.92-.13a3.18,3.18,0,0,1-1.33-1.66c0-.08,0-.15,0-.22s0-.28,0-.42v0a10.5,10.5,0,0,1,1.18-4.94l.37-.84c.39-.9.79-1.8,1.19-2.7.27-.63.55-1.26.83-1.89.68-1.58,1.38-3.15,2.07-4.72.54-1.22,1.07-2.43,1.6-3.65l1.65-3.77c1.13-2.57,2.24-5.15,3.35-7.73.2-.48.2-.48.41-1,.66-1.56,1.33-3.12,2-4.67.24-.58.49-1.15.73-1.72.17-.39.17-.39.33-.78.52-1.22,1.06-2.43,1.63-3.62l.3-.64a5.9,5.9,0,0,1,2.59-2l.72-.4,2.68-1.45,1.19-.63q3.4-1.83,6.82-3.63c4.66-2.46,9.27-5,13.87-7.56l1.72-1,1.88-1,1.49-.83,1.91-1.09.92-.52,1.67-1,.69-.38.25-.16a4.44,4.44,0,0,1,2.12-.57h.37l.27,0h.07c.3,0,.6.07.92.13a3.18,3.18,0,0,1,1.33,1.66,1.7,1.7,0,0,1,0,.22A3,3,0,0,1,707.81,163.56Z" transform="translate(-25.58 -35.61)"/><circle class="cls-2" cx="649.81" cy="160.09" r="5.8"/><path class="cls-4" d="M462.14,226.3q7.47,0,12.14-4a13.78,13.78,0,0,0,4.86-10.62h25.32a33,33,0,0,1-5.6,18.3,36.75,36.75,0,0,1-15.09,12.89,48.36,48.36,0,0,1-21.17,4.59q-21.68,0-34.19-13.4t-12.52-37v-1.73q0-22.7,12.42-36.23t34.11-13.53q19,0,30.41,10.49T504.46,184H479.14a17.72,17.72,0,0,0-4.86-12.46q-4.66-4.8-12.33-4.79-9.43,0-14.25,6.68t-4.81,21.69v2.73q0,15.19,4.77,21.83T462.14,226.3Z" transform="translate(-25.58 -35.61)"/><path class="cls-4" d="M546.23,158.1q10.74-12.54,27-12.53,32.88,0,33.35,37.14v62.93h-27v-62.2q0-8.44-3.74-12.49t-12.42-4q-11.86,0-17.19,8.9v69.83h-27V106.16h27Z" transform="translate(-25.58 -35.61)"/><path class="cls-1" d="M784.85,207.14l-9.71,9.44v30h-27V107.06h27v77.28l5.23-6.53,25.88-29.52h32.42l-36.53,41,39.71,57.3h-31Z" transform="translate(-25.58 -35.61)"/><path class="cls-1" d="M907.16,172.9a76.43,76.43,0,0,0-9.72-.73q-15.33,0-20.09,10.08v64.3h-27V148.29h25.51L876.6,160q8.13-13.53,22.52-13.53a29,29,0,0,1,8.41,1.18Z" transform="translate(-25.58 -35.61)"/><path class="cls-1" d="M920,122.86a12.73,12.73,0,0,1,4.06-9.71q4.07-3.81,11.07-3.82t11,3.82a13.59,13.59,0,0,1,0,19.52q-4.16,3.81-11,3.82t-11-3.82A12.7,12.7,0,0,1,920,122.86Zm28.68,123.69h-27.1V148.29h27.1Z" transform="translate(-25.58 -35.61)"/></svg>