<svg id="Layer_1" data-name="Layer 1" xmlns="http://www.w3.org/2000/svg" viewBox="0 0 1331.19 473.09"><defs><style>.cls-1{fill:#1b2a41;}.cls-2{fill:#f2a61e;}.cls-3{fill:#f7f8f9;}.cls-4{fill:#122c4f;}</style></defs><path class="cls-1" d="M500.77,404.92v59.83h-7.13v-4.57A109.27,109.27,0,0,0,480.8,446q-12.6,12.25-18.3,12.25-6.81,0-16.52-9.13-8.58-8-12.16-15.38t-8-22.28l7-1.78q2.24,6.24,8.47,20.94,7.47,15.5,20.61,15.49a17.65,17.65,0,0,0,11.37-4.51q5.46-4.51,5.46-10.31,0-4.9-9.58-9.58l2.22,5.24-16.26,5.68q-6.36-10.7-6.35-13.48,0-3,5.57-7.52t8.69-4.52q3,0,13.59,8.56,11.81,9.56,11.81,15.44c0,1.56-.82,4.11-2.45,7.67a92.74,92.74,0,0,1,7.13,7.33V404.92H424.56v-8h85.68v8Z" transform="translate(-25.58 -16.46)"/><path class="cls-1" d="M521.83,404.92v59.83h-7.69V418.48l-7-13.56h-1.23v-8h5.24l3,6.69v-17.5l5,1.57,1.79,9.24h10.47v8Z" transform="translate(-25.58 -16.46)"/><path class="cls-1" d="M584.67,404.92v59.83H577V420.63l-4.79-3.35-26.3,22.51-7.58-7.91q4.8-5.46,4.8-9.47c0-2.68-1.3-4-3.9-4q-2.91,0-6.91,2.67l-6-8.36q16.61-15.48,24.51-15.82,7.25-.33,26.19,13.49V386.75h5.57l1.67,10.14h9.92v8ZM551.8,406.7q-3.24,0-9,4.9c4.75,1.64,7.13,5,7.13,10.14V424l14-11.59Q555.81,406.69,551.8,406.7Z" transform="translate(-25.58 -16.46)"/><path class="cls-1" d="M641.49,404.92v59.83h-7.36v-7.82q-7.44-22-18.55-29.05-5.12-3.24-9.33-3.24a13.09,13.09,0,0,0-6.89,2q-3.78,2.35-3.78,5.73,0,2.82,5.24,4.95l6.46-6.13,7.24,10.36q-7.9,7.8-11.81,7.8t-8.46-6.46q-4.12-6-4.13-10.36,0-4.68,5.8-11.81t9.91-7.13q6.58,0,14.15,5.79a40.66,40.66,0,0,1,10.7,11.37,45.47,45.47,0,0,1,3.45,7.91V404.92H588.56v-8H651v8Z" transform="translate(-25.58 -16.46)"/><path class="cls-1" d="M662.54,404.92v59.83h-7.69V418.48l-7-13.56h-1.23v-8h5.24l3,6.69v-17.5l5,1.57,1.78,9.24h10.48v8Z" transform="translate(-25.58 -16.46)"/><path class="cls-1" d="M724.16,404.92v59.83h-7.47v-4.24q-11.88-19.38-37.86-19.38l-2.58-12.26c-.6-.15-.89-.37-.89-.67,0-.59.74-1.3,2.22-2.11q3.34-1.79,17.39-7.8,15.71-6.69,21.72-9v-4.34H667.78v-8h65.85v8Zm-25,58.71-9.14-6.32,9.25-6.82,8.36,7Zm17.49-42.39-25.94,10.91q17.26,5.78,25.94,18.56Z" transform="translate(-25.58 -16.46)"/><path class="cls-1" d="M804.38,404.92v4.55a85,85,0,0,1,14.93,8.78q10.8,7.78,10.8,13.9,0,9.89-12.25,18.56l-10.81-8.47,7.58-10.59,4.45,6q5-3.78,5-4.79,0-6.57-19.72-11.36v43.23h-8l.34-4.24q-9.33-10.14-17-14.26-9.54-5.12-23.81-7.35l-1.46-11,42.23-18.5v-4.45H753.24v-8h80.55v8Zm-7.69,17.46-23.84,10q13.32,4.56,23.84,17.48Z" transform="translate(-25.58 -16.46)"/><path class="cls-1" d="M851.61,404.92q-8.46,6.33-8.46,12.79,0,2.88,2.89,9.34,1.46,3.1,4.35,9.56a15.59,15.59,0,0,1,1.34,5.89q0,6.79-14.38,23l-8.58-15.71,10.7,1.22q5.24-3.23,5.23-8,0-4.11-5.51-13.45t-5.51-12.89q0-3.34,4-11.78h-9.36v-8h28.3v8Z" transform="translate(-25.58 -16.46)"/><path class="cls-1" d="M868.22,404.92v59.83h-7.69V418.48l-7-13.56h-1.23v-8h5.24l3,6.69v-17.5l5,1.57,1.78,9.24H877.8v8Z" transform="translate(-25.58 -16.46)"/><path class="cls-1" d="M944.54,397.67q-24.3-15.48-42.45-15.48-4.58,0-10.92,4c-3.87,2.45-5.79,4.08-5.79,4.9q0,2,3.78,5.79H900l-2.34,8h-9.14v59.83h-7.68V404.92h-7.36v-8h5.46c-2-3.19-3-5.49-3-6.9q0-4,9.31-11.15T901,371.71q14.49,0,45.8,21.28Z" transform="translate(-25.58 -16.46)"/><path class="cls-1" d="M950,404.92v59.83h-7.47v-4.24q-11.88-19.38-37.86-19.38l-2.58-12.26c-.6-.15-.9-.37-.9-.67,0-.59.75-1.3,2.23-2.11q3.35-1.79,17.38-7.8,15.72-6.69,21.73-9v-4.34H893.62v-8h65.84v8Zm-25,58.71-9.14-6.32,9.25-6.82,8.36,7Zm17.49-42.39-25.94,10.91q17.25,5.78,25.94,18.56Z" transform="translate(-25.58 -16.46)"/><path class="cls-1" d="M1007.6,404.92v59.83h-7.25V460.4a45.53,45.53,0,0,0-16.15-11.59q-7.69-3.45-23-2.89l-5-10.59L976.4,423A58.16,58.16,0,0,0,958,410.12l3.67-5.2h-6.57v-8h61.94v8Zm-7.25,0H970.49q9.45,6,18.9,20.53l-16.45,10.88q17.34,3,27.41,15.83Zm-16.93,58.71-9.14-6.32,9.1-6.85,8.5,7Z" transform="translate(-25.58 -16.46)"/><path class="cls-1" d="M1028.65,404.92v59.83H1021V418.48l-7-13.56h-1.23v-8H1018l3,6.69v-17.5l5,1.57,1.78,9.24h10.47v8Z" transform="translate(-25.58 -16.46)"/><path class="cls-1" d="M1090.27,404.92v59.83h-7.47v-4.24q-11.88-19.38-37.86-19.38l-2.58-12.26c-.6-.15-.9-.37-.9-.67,0-.59.75-1.3,2.23-2.11q3.35-1.79,17.39-7.8,15.7-6.69,21.72-9v-4.34h-48.91v-8h65.85v8Zm-25,58.71-9.14-6.32,9.25-6.82,8.36,7Zm17.49-42.39-25.94,10.91q17.25,5.78,25.94,18.56Z" transform="translate(-25.58 -16.46)"/><path class="cls-1" d="M1175.39,404.92v59.83h-7.91V428.42q-2.57-2.44-3.9-2.45c-1.71,0-3.49,1.27-5.35,3.79q-2.79,4.13-8.58,12.15-5.46,6.9-12.14,6.9-7,0-17.16-12.25l9-8.47q4.35,14.71,8.14,14.71,4.79,0,7.68-7.25a29.67,29.67,0,0,0,2.23-11.14q0-4.34-3.9-9.91-4.23-6-8.36-6-2.78,0-8.46,8l-2.45-11.58h-4.91v-8h65.41v8Zm-7.91,0h-19.84q6.36,8.29,6.36,16.6,4.89-4.12,8.69-4.13a10.42,10.42,0,0,1,4.79,1.79Z" transform="translate(-25.58 -16.46)"/><path class="cls-1" d="M1180.4,404.92v-8h64.29v8Zm56.72,54.59q-13.83-7.68-22.29-10.25a110.54,110.54,0,0,0-30-4.57l-3.12-13.7q11,1.89,14.6,1.89a75.25,75.25,0,0,0,19.61-2.67q11.25-3,11.25-7.13c0-1.49-2.49-2.6-7.47-3.35a61.67,61.67,0,0,0-9.24-.78q-9.71,0-21.17,6.69l-5.35-10.7q16.38-7,23.84-7a37.28,37.28,0,0,1,15.82,3.68q9.81,4.45,9.81,11.48t-16.27,16.37q4.23,1.57,9.36,4,3.67,1.8,15.93,10.15Z" transform="translate(-25.58 -16.46)"/><path class="cls-1" d="M1252.6,404.92v4.41q3.9,6.84,13.26,6.84a18.57,18.57,0,0,0,5.07-1.28,18.4,18.4,0,0,1,5.07-1.28q5.34,0,11.25,8.13c3.49,4.75,5.24,8.25,5.24,10.47A23.38,23.38,0,0,1,1284,450.6q-7.57,6.57-16.38,6.57-7,0-14.87-8.28t-7.86-15.4V404.92h-4.57v-8h55.71v8Zm25.29,20.61a24.92,24.92,0,0,0-4.85,1.28,21.68,21.68,0,0,1-6.4,1.28q-6.8,0-14-9v13.71q0,12.81,15,12.81a24.94,24.94,0,0,0,12.59-3.12q6.57-3.68,6.57-10.25,0-1.89-3.45-4.29T1277.89,425.53Z" transform="translate(-25.58 -16.46)"/><path class="cls-1" d="M1347.3,404.92v59.83h-7.46v-4.24Q1328,441.13,1302,441.13l-2.57-12.26c-.6-.15-.9-.37-.9-.67,0-.59.74-1.3,2.23-2.11q3.35-1.79,17.38-7.8,15.71-6.69,21.73-9v-4.34h-48.92v-8h65.85v8Zm-25,58.71-9.13-6.32,9.25-6.82,8.35,7Zm17.5-42.39-25.94,10.91q17.25,5.78,25.94,18.56Z" transform="translate(-25.58 -16.46)"/><path class="cls-1" d="M292.51,58.82c25.22,22.77,42.52,57.94,44.85,91.85,1.51,37.87-10.5,70.35-28.95,103l-1,1.79c-5.82,10.31-12.38,20.07-19.11,29.81-1.46,2.12-2.91,4.26-4.36,6.4-3,4.45-6.19,8.81-9.4,13.14l-1.31,1.78-3.18,4.3h1.88q8.79.06,17.59.15c3,0,6,.06,9,.07l8.73.08,3.33,0c1.56,0,3.11,0,4.67,0l2.68,0c3.33.34,6.64,1.08,9.18,3.4,2.22,3.8,2.77,7.26,3.23,11.59,3.74,28.23,13.79,56.38,24,82.87l.91,2.39a25.64,25.64,0,0,0,2.06,4.47c4.16,8.47,3.48,17.46,3.36,26.71,0,1.82,0,3.64,0,5.46,0,2.19,0,4.39,0,6.58v2.44c-.08,5-.55,9.77-4.1,13.63-3.32,2.91-6.15,3.05-10.36,3h-19.6l-13.43,0-4.6,0h-2.32Q290.6,474,275,474q-10.54,0-21.09.05l-11.16,0q-5.25,0-10.5,0c-1.29,0-2.57,0-3.86,0l-5.26,0-1.54,0c-4,.07-6.39,1.42-9.2,4.19l-.9,1.1c-4.68,5.48-8.18,8.9-15.53,10.12a17.48,17.48,0,0,1-12.18-4.14,73.08,73.08,0,0,1-6.85-7.85c-3.16-3-6.62-3.34-10.8-3.3h-1.7c-1.88,0-3.75,0-5.63,0H146q-6.89,0-13.75,0l-34.14,0q-13.27,0-26.54,0c-4.56,0-9.11,0-13.67,0l-8.5,0H45.49c-1.79,0-3.59,0-5.38,0l-1.57,0c-4-.05-6.36-1.36-9.22-4.08-2.95-3.64-4.11-6.36-3.63-11.09,1.35-3.71,3.19-7,6.8-8.8a23.37,23.37,0,0,1,7.54-.78h1.7l5.64,0H73.84l21.7,0,24.71,0,50.84.07c-5.51-7-12.85-10.57-21.54-12.12-2-.19-3.89-.24-5.84-.27l-1.7,0c-1.87,0-3.74-.06-5.62-.09l-4.07-.08c-11.15-.2-22.31-.26-33.46-.3l-5.49,0-6.92,0H85.06l-15.58,0q-6.33,0-12.66-.05c-2.21,0-4.42,0-6.63,0-2.43,0-4.86,0-7.3,0l-2.15,0c-4.23-.06-7.5-.61-11-3.07-2.87-3-3.59-5.4-3.53-9.56a70.91,70.91,0,0,1,2.49-11.67c.25-1,.49-1.91.74-2.86.76-3,1.54-5.93,2.32-8.89l.72-2.76c1.54-5.88,3.12-11.75,4.7-17.62l1.17-4.33Q43.68,355.86,49.21,336l.59-2.12,1.65-5.9c.16-.56.32-1.12.48-1.7.76-2.67,1.54-5.33,2.37-8l.46-1.46A10.42,10.42,0,0,1,60,311.55c1.91-.08,3.8-.12,5.71-.13l1.79,0,5.88-.06,4.07,0,10.73-.1,10.93-.11,21.47-.21-1-1.3c-2.73-3.37-5.36-6.76-7.77-10.36-.64-.94-1.28-1.87-1.91-2.81l-1-1.49q-1.64-2.42-3.29-4.81c-10-14.52-19.76-29-28-44.52l-1.25-2.33c-12.45-23.15-23.45-48.12-23.84-74.87l0-1.64c-.16-12.92.32-25,3.58-37.62l.49-1.9c7.82-29.43,25.21-56.76,49.32-75.51l1.11-.87a154.53,154.53,0,0,1,21.78-13.94l1.39-.75a131.06,131.06,0,0,1,43-13.39l1.52-.23C217.49,16,260.48,30.36,292.51,58.82Z" transform="translate(-25.58 -16.46)"/><path class="cls-2" d="M52.61,436.09l24.2,0H88.06c15.22,0,30.44,0,45.66.23l4,.05c11.69.14,22.57,1.28,31.37,9.86.91,1.34,1.81,2.68,2.69,4-23,.08-46.06-.12-69.09-.3l-16.42-.12-33.64-.25Z" transform="translate(-25.58 -16.46)"/><path class="cls-2" d="M215.52,51.05l1.32.24c28.88,5.44,54.8,22.59,71.8,46.41,17.57,26.12,24.49,56.9,18.42,88-6.21,29.41-23.2,55.48-48.46,72a119,119,0,0,1-90.22,15.42,114.45,114.45,0,0,1-70.46-50.2,117.17,117.17,0,0,1-15.69-41.28l-.41-2.4A114.61,114.61,0,0,1,103,94.81c3.19-4.21,6.61-8.21,10.16-12.13l1.22-1.37C139.49,54.73,180.28,44.45,215.52,51.05Z" transform="translate(-25.58 -16.46)"/><path class="cls-3" d="M74.83,334.44q12.63-.37,25.28-.56c3.91-.05,7.83-.13,11.74-.25s7.57-.18,11.35-.21c1.44,0,2.88-.06,4.31-.12,11.79-.46,11.79-.46,16.32,3.42a61,61,0,0,1,6,7.06c1.8,2.39,3.81,4.59,5.8,6.82l1.63,1.84c5.41,6,11.06,11.68,16.75,17.37q2.55,2.56,5.08,5.14l3.26,3.27,1.52,1.54c3.2,3.18,6.29,6.11,11.05,6.18,5.76-.24,9.28-4.32,13.07-8.25,1.32-1.34,2.66-2.57,4.1-3.78A128.71,128.71,0,0,0,225.79,360c1.34-1.52,2.76-2.93,4.2-4.35,2.25-2.23,4.37-4.51,6.43-6.91,2.53-2.91,5.16-5.73,7.79-8.54a14,14,0,0,0,1.79-2.26c2.39-3.24,2.39-3.24,4.45-3.92a31.22,31.22,0,0,1,4.43-.11h1.7c1.83,0,3.67,0,5.5.08l3.84,0c3.35,0,6.7.07,10.05.12s6.85.07,10.28.09q10.06.07,20.14.23c1.24,3.61,2.37,7.2,3.28,10.91l.32,1.32c.23.92.46,1.84.68,2.76l1.08,4.35c1,3.91,1.94,7.82,2.88,11.73,3.63,14.73,8.86,29.2,14.4,43.29.92,2.38.92,2.38.92,3.05H328.6q-16.37.06-32.74.15l-15.84.08q-6.9,0-13.82.07l-7.3,0c-21.72,0-40.66,2-57.22,17.51a45,45,0,0,0-5.36,7.05l-1,1.36H194c-.84-1.1-1.63-2.23-2.4-3.37-9.19-12.82-23.55-18.85-38.67-21.54l-1.92-.35a88.55,88.55,0,0,0-12-.46l-2.79,0-7.54-.05-7.88-.05-14.92-.09-17-.11L54,411.85c.21-1.07.42-2.14.64-3.21l.35-1.81c.45-2.14,1-4.24,1.56-6.35l.35-1.3c.39-1.44.79-2.88,1.18-4.32.29-1.05.57-2.09.85-3.14.85-3.09,1.69-6.18,2.54-9.27.67-2.47,1.35-4.94,2-7.42l4.26-15.56c.39-1.42.77-2.85,1.16-4.27q1.11-4,2.21-8.07l.68-2.46.63-2.29.54-2C73.51,338.38,74.16,336.41,74.83,334.44Z" transform="translate(-25.58 -16.46)"/><path class="cls-2" d="M248.1,436.61h19.11l15.65,0,17.83,0,36.67.07v12.79l-38.22.26-17.76.13-15.5.1-8.18.06q-20.08.13-40.16.12c4-6.77,10.31-10.44,17.7-12.83C239.46,436.37,243.78,436.58,248.1,436.61Z" transform="translate(-25.58 -16.46)"/><path class="cls-1" d="M256.56,99.37a0,0,0,0,1,0,0c.11,3.69-.78,6.45-2.39,10l-.73,1.7c-.8,1.83-1.61,3.66-2.42,5.47-.55,1.29-1.11,2.57-1.67,3.85q-2.1,4.78-4.21,9.56l-3.24,7.4c-1.11,2.55-2.23,5.09-3.34,7.63q-3.44,7.82-6.79,15.68l-.83,1.93q-2,4.74-4,9.48c-.49,1.17-1,2.32-1.48,3.48l-.67,1.58c-1.06,2.47-2.14,4.92-3.3,7.34-.2.43-.4.86-.61,1.29-1.26,2-3.18,3-5.24,4.12l-1.46.81c-1.8,1-3.62,2-5.44,2.93L206.29,195c-4.59,2.47-9.21,4.91-13.82,7.35-9.44,5-18.78,10.13-28.11,15.32l-3.5,1.94-3.8,2.12c-1,.55-2,1.12-3,1.69-1.3.72-2.59,1.46-3.88,2.2l-1.86,1-3.38,1.94-1.41.78-.51.32a9.07,9.07,0,0,1-4.29,1.16,4.57,4.57,0,0,1-.74,0,5.28,5.28,0,0,1-.55,0h-.14c-.61-.06-1.23-.14-1.88-.26a6.36,6.36,0,0,1-2.69-3.37l0-.44a8.13,8.13,0,0,1,0-.84v-.05c-.1-3.69.79-6.45,2.39-10,.24-.56.49-1.12.73-1.7.81-1.83,1.61-3.65,2.42-5.47l1.68-3.84c1.39-3.19,2.8-6.39,4.2-9.57q1.63-3.69,3.24-7.4c1.12-2.54,2.23-5.09,3.35-7.63q3.43-7.81,6.78-15.67l.83-1.94,4-9.48c.49-1.16,1-2.32,1.48-3.48l.66-1.58c1.06-2.46,2.14-4.91,3.3-7.34l.62-1.29c1.25-2,3.18-3,5.23-4.11l1.46-.82c1.81-1,3.62-2,5.44-2.93l2.41-1.29q6.9-3.69,13.83-7.34c9.44-5,18.78-10.14,28.11-15.32l3.49-1.94,3.81-2.12,3-1.69c1.3-.73,2.6-1.46,3.88-2.2l1.87-1.06,3.38-1.94c.49-.27,1-.54,1.41-.77l.5-.33a9.1,9.1,0,0,1,4.29-1.16h.75l.54,0h.15c.61.06,1.22.15,1.87.27a6.27,6.27,0,0,1,2.7,3.36c0,.15,0,.3,0,.45A7.87,7.87,0,0,1,256.56,99.37Z" transform="translate(-25.58 -16.46)"/><circle class="cls-2" cx="165.27" cy="148.06" r="11.75"/><path class="cls-1" d="M431.24,278.5q0-23.87,11.35-38.43t30.63-14.57q17.05,0,26.54,11.69l1.15-9.77H526V327.67q0,13.6-6.19,23.67a39.75,39.75,0,0,1-17.39,15.34q-11.22,5.26-26.26,5.27A57,57,0,0,1,454,367.4q-10.83-4.56-16.39-11.75l12.27-16.86q10.35,11.59,25.11,11.59,11,0,17.16-5.89t6.13-16.72V322.2Q488.65,333,473,333q-18.69,0-30.23-14.62t-11.55-38.77Zm27.7,2.06q0,14.12,5.65,22.13a18,18,0,0,0,15.53,8q12.64,0,18.11-9.5V257.53q-5.57-9.51-17.92-9.5a18.11,18.11,0,0,0-15.67,8.15Q458.94,264.34,458.94,280.56Z" transform="translate(-25.58 -16.46)"/><path class="cls-1" d="M609.41,320.58Q599.15,333,581,333q-16.68,0-25.45-9.59t-9-28.08v-68h27.7v67.07q0,16.22,14.76,16.21,14.08,0,19.36-9.78v-73.5h27.79v103.7H610.17Z" transform="translate(-25.58 -16.46)"/><path class="cls-1" d="M657,200.58a13.62,13.62,0,0,1,4.16-10.25q4.17-4,11.36-4t11.31,4a14.62,14.62,0,0,1,0,20.6q-4.26,4-11.26,4t-11.26-4A13.59,13.59,0,0,1,657,200.58Zm29.42,130.54h-27.8V227.42h27.8Z" transform="translate(-25.58 -16.46)"/><path class="cls-1" d="M704.87,278.5q0-24.24,10.87-38.62T745.5,225.5a31.76,31.76,0,0,1,25,11.31V183.9h27.79V331.12h-25l-1.34-11Q761.61,333,745.31,333q-18.3,0-29.37-14.43T704.87,278.5Zm27.69,2.06q0,14.6,5.09,22.37t14.76,7.77q12.84,0,18.11-10.84v-41Q765.35,248,752.6,248,732.56,248,732.56,280.56Z" transform="translate(-25.58 -16.46)"/><path class="cls-1" d="M867.51,333q-22.82,0-37.14-14T816,281.76v-2.68a62.71,62.71,0,0,1,6-27.94,44.35,44.35,0,0,1,17.11-19,48,48,0,0,1,25.26-6.66q21.27,0,33.49,13.42T910.16,277v11.31h-66q1.33,10.16,8.09,16.29t17.11,6.13q16,0,25-11.59L908,314.35a41.62,41.62,0,0,1-16.87,13.75A55.34,55.34,0,0,1,867.51,333Zm-3.16-85.21A17.28,17.28,0,0,0,851,253.42q-5.13,5.58-6.57,16h38.53v-2.22q-.2-9.24-5-14.29T864.35,247.83Z" transform="translate(-25.58 -16.46)"/><path class="cls-1" d="M927.32,317.51a13.89,13.89,0,0,1,4.46-10.73,17.28,17.28,0,0,1,22.42,0,13.93,13.93,0,0,1,4.46,10.73,13.76,13.76,0,0,1-4.41,10.59,17.61,17.61,0,0,1-22.52,0A13.76,13.76,0,0,1,927.32,317.51Z" transform="translate(-25.58 -16.46)"/><path class="cls-1" d="M1026,313.32c5.1,0,9.26-1.4,12.45-4.22a14.74,14.74,0,0,0,5-11.21h26a35.47,35.47,0,0,1-5.75,19.31,37.87,37.87,0,0,1-15.48,13.61,48.39,48.39,0,0,1-21.71,4.84q-22.23,0-35.07-14.13t-12.85-39.06v-1.82q0-24,12.75-38.24t35-14.28q19.46,0,31.2,11.07t11.93,29.47h-26q-.2-8.09-5-13.15t-12.65-5.06q-9.67,0-14.61,7.06t-4.94,22.89v2.88q0,16,4.89,23T1026,313.32Z" transform="translate(-25.58 -16.46)"/><path class="cls-1" d="M1081,280.93q0-15.44,5.94-27.51A43.59,43.59,0,0,1,1104,234.73q11.16-6.61,25.93-6.61,21,0,34.26,12.84T1179,275.85l.19,7.09q0,23.87-13.32,38.29t-35.75,14.42q-22.42,0-35.8-14.37T1081,282.17Zm27.7,2q0,14.79,5.56,22.61t15.91,7.82q10.07,0,15.72-7.73t5.65-24.71q0-14.49-5.65-22.46t-15.91-8q-10.17,0-15.72,7.92T1108.65,282.89Z" transform="translate(-25.58 -16.46)"/><path class="cls-1" d="M1222.22,230l.86,11.59q11-13.51,29.81-13.51,20,0,27.51,15.81,10.92-15.81,31.15-15.81,16.86,0,25.11,9.82t8.24,29.57v66.23h-27.79V267.61q0-8.82-3.45-12.9t-12.17-4.07q-12.46,0-17.26,11.89l.1,71.21h-27.7v-66q0-9-3.55-13t-12.07-4q-11.79,0-17.06,9.78v73.32h-27.7V230Z" transform="translate(-25.58 -16.46)"/><path class="cls-2" d="M709.46,50.69l.67.12a57.33,57.33,0,0,1,45.41,67.64,57.19,57.19,0,0,1-24.4,36.25,59.93,59.93,0,0,1-45.4,7.76,57.57,57.57,0,0,1-35.47-25.27,59.08,59.08,0,0,1-7.89-20.77l-.21-1.21a57.68,57.68,0,0,1,10.68-42.49c1.61-2.12,3.33-4.14,5.11-6.11l.62-.69C671.2,52.54,691.73,47.37,709.46,50.69Z" transform="translate(-25.58 -16.46)"/><path class="cls-1" d="M730.12,75v0a10.77,10.77,0,0,1-1.2,5c-.12.28-.25.56-.37.85-.4.93-.81,1.84-1.22,2.76l-.84,1.93c-.7,1.61-1.41,3.21-2.12,4.82l-1.63,3.72L721.06,98c-1.15,2.62-2.29,5.26-3.42,7.89l-.41,1c-.69,1.58-1.36,3.18-2,4.77l-.75,1.75-.33.79c-.53,1.24-1.08,2.48-1.66,3.7-.1.21-.2.43-.31.65a6.14,6.14,0,0,1-2.64,2.07l-.73.41c-.91.5-1.82,1-2.74,1.47l-1.21.65c-2.31,1.24-4.64,2.47-7,3.7-4.75,2.5-9.45,5.1-14.15,7.71l-1.76,1L680,136.57l-1.52.85-1.95,1.11-.93.53-1.71,1-.71.39-.25.16a4.62,4.62,0,0,1-2.16.59h-.38l-.27,0h-.07c-.31,0-.62-.07-1-.13a3.23,3.23,0,0,1-1.35-1.7c0-.07,0-.15,0-.22s0-.29,0-.42v0a10.72,10.72,0,0,1,1.21-5l.37-.85c.4-.92.81-1.84,1.21-2.75.28-.65.57-1.3.85-1.94l2.11-4.81c.55-1.24,1.09-2.48,1.63-3.73s1.12-2.56,1.69-3.84q1.73-3.93,3.41-7.89l.42-1,2-4.77c.24-.59.49-1.17.74-1.75l.34-.8c.53-1.24,1.07-2.47,1.66-3.69l.3-.65a6.11,6.11,0,0,1,2.64-2.07l.74-.41c.9-.5,1.82-1,2.73-1.48l1.22-.65q3.47-1.86,7-3.69c4.75-2.51,9.46-5.11,14.15-7.71l1.76-1,1.92-1.07,1.51-.85q1-.54,1.95-1.11l.94-.53,1.7-1,.71-.39.26-.17a4.54,4.54,0,0,1,2.15-.58h.38l.27,0h.08c.3,0,.61.07.94.13a3.21,3.21,0,0,1,1.36,1.69c0,.08,0,.15,0,.23S730.12,74.87,730.12,75Z" transform="translate(-25.58 -16.46)"/><circle class="cls-2" cx="671.47" cy="91.34" r="5.91"/><path class="cls-4" d="M479.52,139q7.62,0,12.39-4.08a14.13,14.13,0,0,0,4.95-10.84h25.83A33.61,33.61,0,0,1,517,142.76a37.44,37.44,0,0,1-15.39,13.15A49.32,49.32,0,0,1,480,160.59q-22.11,0-34.88-13.66t-12.77-37.75v-1.76q0-23.16,12.68-37t34.78-13.8q19.35,0,31,10.7t11.87,28.48H496.86q-.19-7.82-4.95-12.71t-12.58-4.89q-9.63,0-14.54,6.82t-4.91,22.13V110q0,15.5,4.86,22.27T479.52,139Z" transform="translate(-25.58 -16.46)"/><path class="cls-4" d="M565.29,69.44q11-12.78,27.55-12.78,33.54,0,34,37.88v64.2H599.32V95.29q0-8.62-3.82-12.74t-12.67-4.12q-12.11,0-17.54,9.07v71.24H537.75V16.46h27.54Z" transform="translate(-25.58 -16.46)"/><path class="cls-1" d="M808.7,119.46l-9.91,9.64v30.56H771.25V17.38h27.54V96.21l5.34-6.67,26.4-30.1H863.6l-37.26,41.77,40.5,58.45H835.2Z" transform="translate(-25.58 -16.46)"/><path class="cls-1" d="M933.46,84.54a77.64,77.64,0,0,0-9.91-.74q-15.63,0-20.49,10.28v65.58H875.51V59.44h26l.76,12q8.3-13.8,23-13.81a29.75,29.75,0,0,1,8.58,1.21Z" transform="translate(-25.58 -16.46)"/><path class="cls-1" d="M946.52,33.5a13,13,0,0,1,4.14-9.91q4.15-3.9,11.3-3.89t11.24,3.89a12.91,12.91,0,0,1,4.2,9.91,12.94,12.94,0,0,1-4.25,10c-2.82,2.6-6.56,3.89-11.19,3.89s-8.38-1.29-11.2-3.89A12.93,12.93,0,0,1,946.52,33.5Zm29.26,126.16H948.14V59.44h27.64Z" transform="translate(-25.58 -16.46)"/></svg>